<svg xmlns="http://www.w3.org/2000/svg" width="1200" height="630" viewBox="0 0 1200 630">
  <!-- Source for public/og.png (1200×630), rendered once with headless Chromium. -->
  <rect width="1200" height="630" fill="#060914"/>
  <g stroke="rgba(148,163,184,0.12)" stroke-width="1">
    <path d="M0 105H1200M0 210H1200M0 315H1200M0 420H1200M0 525H1200M150 0V630M300 0V630M450 0V630M600 0V630M750 0V630M900 0V630M1050 0V630"/>
  </g>
  <g transform="translate(430 250) scale(1.1)" fill="none" stroke-linejoin="round" stroke-linecap="round">
    <path d="M600.4 139.7L605.7 140.2L603.9 145.7L599.6 156.3L594.4 167.1L586.4 172.9L581.0 179.5L580.9 179.6L568.9 185.6L564.6 195.8L559.7 208.7L558.7 211.5L552.1 231.8L551.1 235.4L535.6 263.0L527.6 282.9L523.7 284.8L520.5 283.0L512.8 275.9L494.7 256.8L481.7 258.3L429.7 261.3L421.7 262.6L419.5 261.5L403.8 257.0L381.7 250.2L377.4 248.9L373.0 247.9L356.7 242.3L334.9 242.3L301.7 234.6L295.8 231.4L269.3 232.3L263.2 229.7L261.2 227.1L259.5 223.4L256.6 218.6L254.3 213.0L245.7 194.4L242.4 188.0L227.6 167.2L224.9 160.4L223.8 157.3L220.8 154.6L218.0 150.2L216.1 147.1L215.3 138.5L208.1 135.1L200.2 132.8L194.1 131.3L189.1 128.7L184.5 128.5L179.2 126.9L176.8 126.8L173.6 125.2L168.6 123.7L163.2 122.1L153.5 118.5L148.9 116.4L145.8 115.0L141.2 115.1L137.5 115.0L133.6 114.5L131.3 112.4L129.0 109.0L125.1 107.3L122.8 107.0L119.1 106.4L112.7 106.9L107.9 108.6L104.7 109.8L101.1 110.6L98.9 111.1L89.6 112.1L78.1 114.2L74.1 114.4L64.6 116.8L62.4 117.1L59.7 117.4L52.5 117.3L49.1 117.7L46.8 118.2L43.5 115.6L39.4 112.2L36.2 107.8L34.3 104.4L35.9 97.3L36.4 92.1L36.2 87.9L37.8 85.3L37.7 80.2L39.4 78.7L41.3 77.0L43.2 74.9L45.8 73.5L51.1 61.7L52.1 58.2L54.7 56.2L57.2 54.8L59.7 53.2L62.6 52.3L66.6 51.1L70.3 50.2L73.3 48.2L76.3 46.2L78.6 45.4L82.3 44.5L85.4 42.5L87.9 41.5L90.5 39.8L93.4 38.4L96.6 40.4" stroke="rgba(56,189,248,0.35)" stroke-width="12"/>
    <path d="M600.4 139.7L605.7 140.2L603.9 145.7L599.6 156.3L594.4 167.1L586.4 172.9L581.0 179.5L580.9 179.6L568.9 185.6L564.6 195.8L559.7 208.7L558.7 211.5L552.1 231.8L551.1 235.4L535.6 263.0L527.6 282.9L523.7 284.8L520.5 283.0L512.8 275.9L494.7 256.8L481.7 258.3L429.7 261.3L421.7 262.6L419.5 261.5L403.8 257.0L381.7 250.2L377.4 248.9L373.0 247.9L356.7 242.3L334.9 242.3L301.7 234.6L295.8 231.4L269.3 232.3L263.2 229.7L261.2 227.1L259.5 223.4L256.6 218.6L254.3 213.0L245.7 194.4L242.4 188.0L227.6 167.2L224.9 160.4L223.8 157.3L220.8 154.6L218.0 150.2L216.1 147.1L215.3 138.5L208.1 135.1L200.2 132.8L194.1 131.3L189.1 128.7L184.5 128.5L179.2 126.9L176.8 126.8L173.6 125.2L168.6 123.7L163.2 122.1L153.5 118.5L148.9 116.4L145.8 115.0L141.2 115.1L137.5 115.0L133.6 114.5L131.3 112.4L129.0 109.0L125.1 107.3L122.8 107.0L119.1 106.4L112.7 106.9L107.9 108.6L104.7 109.8L101.1 110.6L98.9 111.1L89.6 112.1L78.1 114.2L74.1 114.4L64.6 116.8L62.4 117.1L59.7 117.4L52.5 117.3L49.1 117.7L46.8 118.2L43.5 115.6L39.4 112.2L36.2 107.8L34.3 104.4L35.9 97.3L36.4 92.1L36.2 87.9L37.8 85.3L37.7 80.2L39.4 78.7L41.3 77.0L43.2 74.9L45.8 73.5L51.1 61.7L52.1 58.2L54.7 56.2L57.2 54.8L59.7 53.2L62.6 52.3L66.6 51.1L70.3 50.2L73.3 48.2L76.3 46.2L78.6 45.4L82.3 44.5L85.4 42.5L87.9 41.5L90.5 39.8L93.4 38.4L96.6 40.4" stroke="#38bdf8" stroke-width="4"/>
    <circle cx="600.4" cy="139.7" r="7" fill="#34d399" stroke="none"/>
    <circle cx="96.6" cy="40.4" r="7" fill="#fb7185" stroke="none"/>
  </g>
  <g font-family="Liberation Sans, Helvetica, Arial, sans-serif">
    <text x="80" y="150" font-size="84" font-weight="700" fill="#e2e8f0">⚓ searoute-ts</text>
    <text x="80" y="215" font-size="34" fill="#94a3b8">Shortest sea route between any two ports</text>
    <text x="80" y="480" font-size="30" fill="#7dd3fc">Shanghai → Rotterdam</text>
    <text x="80" y="530" font-size="44" font-weight="700" fill="#e2e8f0">10,666 nm via Suez</text>
    <text x="80" y="585" font-size="24" fill="#94a3b8" font-family="DejaVu Sans Mono, monospace">npm install searoute-ts</text>
  </g>
</svg>
